<svg xmlns="http://www.w3.org/2000/svg" width="207" height="26" viewBox="0 0 207 26" fill="currentColor" id="svg1823330512_6670">
  <path d="M20.2366 23.8612C20.2366 23.9541 20.1901 24.0377 20.1158 24.0841C18.4256 25.2079 16.0759 25.8022 13.3177 25.8022C5.72084 25.8022 0 20.4343 0 13.1904C0 5.94645 5.86015 0.19775 13.5684 0.19775C15.9274 0.19775 18.1191 0.689964 19.8001 1.58152C19.8837 1.62796 19.9394 1.72083 19.9394 1.8137V7.17235C19.9394 7.37666 19.7165 7.4974 19.54 7.38595C18.0077 6.43867 16.0759 5.88144 14.1442 5.88144C9.65857 5.88144 6.57525 8.7883 6.57525 13.0232C6.57525 17.2581 9.72358 20.0535 13.9956 20.0535C16.0388 20.0535 18.1377 19.4313 19.8186 18.3261C19.9951 18.2147 20.218 18.3261 20.218 18.5397V23.8612H20.2366Z" fill="currentColor"/>
  <path d="M24.4065 0.643622H30.2574C30.3967 0.643622 30.5174 0.764353 30.5174 0.90366V9.77283C30.5174 9.91214 30.6382 10.0329 30.7775 10.0329H39.7024C39.8417 10.0329 39.9624 9.91214 39.9624 9.77283V0.90366C39.9624 0.764353 40.0831 0.643622 40.2224 0.643622H46.0733C46.2126 0.643622 46.3333 0.764353 46.3333 0.90366V25.1244C46.3333 25.2637 46.2126 25.3844 46.0733 25.3844H40.2224C40.0831 25.3844 39.9624 25.2637 39.9624 25.1244V15.7351C39.9624 15.5958 39.8417 15.4751 39.7024 15.4751H30.7775C30.6382 15.4751 30.5174 15.5958 30.5174 15.7351V25.1244C30.5174 25.2637 30.3967 25.3844 30.2574 25.3844H24.4065C24.2672 25.3844 24.1465 25.2637 24.1465 25.1244V0.90366C24.1465 0.764353 24.2672 0.643622 24.4065 0.643622Z" fill="currentColor"/>
  <path d="M63.4398 14.7507L61.0251 8.14756C60.9415 7.91539 60.6165 7.91539 60.5329 8.14756L58.1461 14.7507C58.0811 14.9179 58.2111 15.0943 58.3876 15.0943H63.1797C63.3562 15.0943 63.4862 14.9179 63.4212 14.7414L63.4398 14.7507ZM57.8768 0.615736H63.6812C63.7834 0.615736 63.8855 0.680746 63.9227 0.782904L73.6277 25.0315C73.6927 25.1987 73.572 25.3844 73.3862 25.3844H67.4703C67.3682 25.3844 67.266 25.3194 67.2289 25.2172L65.3343 20.3136C65.2972 20.2115 65.195 20.1465 65.0929 20.1465H56.4744C56.3723 20.1465 56.2701 20.2115 56.233 20.3136L54.3384 25.2172C54.3013 25.3194 54.1991 25.3844 54.0969 25.3844H48.2182C48.0325 25.3844 47.9117 25.1987 47.9768 25.0315L57.6539 0.782904C57.6911 0.680746 57.7932 0.625025 57.8954 0.625025L57.8768 0.615736Z" fill="currentColor"/>
  <path d="M98.2293 0.90366V25.1244C98.2293 25.2637 98.1085 25.3844 97.9692 25.3844H93.1121C93.0285 25.3844 92.9542 25.3473 92.9078 25.2823L82.4505 11.6488C82.3019 11.4538 81.9861 11.556 81.9861 11.8067V25.1244C81.9861 25.2637 81.8654 25.3844 81.7261 25.3844H75.9124C75.7731 25.3844 75.6523 25.2637 75.6523 25.1244V0.90366C75.6523 0.764353 75.7731 0.643622 75.9124 0.643622H80.8067C80.8903 0.643622 80.9646 0.680771 81.011 0.745781L91.4311 14.3421C91.5797 14.5371 91.8955 14.4349 91.8955 14.1842V0.90366C91.8955 0.764353 92.0162 0.643622 92.1555 0.643622H97.9692C98.1085 0.643622 98.2293 0.764353 98.2293 0.90366Z" fill="currentColor"/>
  <path d="M124.791 0.90366V25.1244C124.791 25.2637 124.67 25.3844 124.531 25.3844H119.674C119.59 25.3844 119.516 25.3473 119.469 25.2823L109.012 11.6488C108.863 11.4538 108.548 11.556 108.548 11.8067V25.1244C108.548 25.2637 108.427 25.3844 108.288 25.3844H102.474C102.335 25.3844 102.214 25.2637 102.214 25.1244V0.90366C102.214 0.764353 102.335 0.643622 102.474 0.643622H107.368C107.452 0.643622 107.526 0.680771 107.573 0.745781L117.993 14.3421C118.141 14.5371 118.457 14.4349 118.457 14.1842V0.90366C118.457 0.764353 118.578 0.643622 118.717 0.643622H124.531C124.67 0.643622 124.791 0.764353 124.791 0.90366Z" fill="currentColor"/>
  <path d="M129.053 0.615736H145.51C145.649 0.615736 145.77 0.736467 145.77 0.875773V5.62148C145.77 5.76078 145.649 5.88151 145.51 5.88151H135.387C135.248 5.88151 135.127 6.00224 135.127 6.14155V10.1257C135.127 10.265 135.248 10.3858 135.387 10.3858H143.476C143.615 10.3858 143.736 10.5065 143.736 10.6458V15.215C143.736 15.3543 143.615 15.4751 143.476 15.4751H135.387C135.248 15.4751 135.127 15.5958 135.127 15.7351V19.8586C135.127 19.9979 135.248 20.1186 135.387 20.1186H146.011C146.151 20.1186 146.271 20.2394 146.271 20.3787V25.1244C146.271 25.2637 146.151 25.3844 146.011 25.3844H129.053C128.914 25.3844 128.793 25.2637 128.793 25.1244V0.875773C128.793 0.736467 128.914 0.615736 129.053 0.615736Z" fill="currentColor"/>
  <path d="M150.032 0.615736H155.883C156.023 0.615736 156.143 0.736467 156.143 0.875773V19.7286C156.143 19.8679 156.264 19.9886 156.403 19.9886H165.616C165.756 19.9886 165.876 20.1093 165.876 20.2486V25.1336C165.876 25.273 165.756 25.3937 165.616 25.3937H150.032C149.893 25.3937 149.772 25.273 149.772 25.1336V0.885062C149.772 0.745756 149.893 0.625025 150.032 0.625025V0.615736Z" fill="currentColor"/>
  <path d="M180.132 9.13203C179.9 10.5901 178.59 11.6117 176.993 11.6117C175.395 11.6117 174.067 10.5715 173.817 9.13203H167.529C167.789 13.7756 171.597 16.2924 175.832 16.2181C175.878 16.2181 175.943 16.2181 175.943 16.2181H176.157L175.47 17.1561H182.612L184.042 15.0758C185.361 13.1812 186.196 11.3702 186.336 9.13203H180.132Z" fill="#CDFD5F"/>
  <path d="M168.616 4.51627C167.984 5.58428 167.604 6.81947 167.529 8.17538H173.817C174.058 6.68945 175.358 5.70502 176.993 5.70502C178.627 5.70502 179.872 6.69874 180.132 8.17538H186.354C186.298 6.81947 185.936 5.58428 185.314 4.51627H168.625H168.616Z" fill="#CDFD5F"/>
  <path d="M171.923 22.2825L169.982 24.9664C169.861 25.1429 169.982 25.3751 170.195 25.3751H177.003C177.086 25.3751 177.17 25.3379 177.216 25.2636L179.259 22.2732H171.923V22.2825Z" fill="#CDFD5F"/>
  <path d="M174.867 18.224L172.656 21.2795H179.956L182.046 18.224H174.867Z" fill="#CDFD5F"/>
  <path d="M184.599 3.47609C182.937 1.44222 180.216 0.197747 176.974 0.197747C173.733 0.197747 171.012 1.42364 169.312 3.47609H184.599Z" fill="#CDFD5F"/>
  <path d="M205.236 3.50397C203.573 1.4701 200.852 0.225629 197.611 0.225629C194.37 0.225629 191.649 1.45152 189.949 3.50397H205.236Z" fill="#CDFD5F"/>
  <path d="M192.484 22.2825L190.543 24.9664C190.422 25.1429 190.543 25.3751 190.757 25.3751H197.564C197.648 25.3751 197.731 25.3379 197.778 25.2636L199.821 22.2732H192.484V22.2825Z" fill="#CDFD5F"/>
  <path d="M189.261 4.51627C188.63 5.58428 188.249 6.81947 188.175 8.17538H194.462C194.704 6.68945 196.004 5.70502 197.638 5.70502C199.273 5.70502 200.517 6.69874 200.777 8.17538H207C206.944 6.81947 206.582 5.58428 205.96 4.51627H189.261Z" fill="#CDFD5F"/>
  <path d="M195.419 18.224L193.218 21.2795H200.517L202.607 18.224H195.419Z" fill="#CDFD5F"/>
  <path d="M200.777 9.13203C200.545 10.5901 199.236 11.6117 197.638 11.6117C196.041 11.6117 194.713 10.5715 194.462 9.13203H188.175C188.435 13.7756 192.243 16.2924 196.477 16.2181C196.524 16.2181 196.589 16.2181 196.589 16.2181H196.802L196.115 17.1561H203.257L204.687 15.0758C206.006 13.1812 206.842 11.3702 206.981 9.13203H200.777Z" fill="#CDFD5F"/>
</svg>
